<svg width="128" height="128" viewBox="0 0 128 128" fill="none" xmlns="http://www.w3.org/2000/svg">
  <defs>
    <!-- Gradient definitions -->
    <linearGradient id="bgGradient" x1="0%" y1="0%" x2="100%" y2="100%">
      <stop offset="0%" style="stop-color:#667eea;stop-opacity:1" />
      <stop offset="50%" style="stop-color:#764ba2;stop-opacity:1" />
      <stop offset="100%" style="stop-color:#f093fb;stop-opacity:1" />
    </linearGradient>
    
    <linearGradient id="brainGradient" x1="0%" y1="0%" x2="100%" y2="100%">
      <stop offset="0%" style="stop-color:#ff6b6b;stop-opacity:1" />
      <stop offset="50%" style="stop-color:#4ecdc4;stop-opacity:1" />
      <stop offset="100%" style="stop-color:#45b7d1;stop-opacity:1" />
    </linearGradient>
  </defs>
  
  <!-- Background circle with gradient -->
  <circle cx="64" cy="64" r="60" fill="url(#bgGradient)"/>
  
  <!-- Brain/AI representation -->
  <g transform="translate(64, 64)">
    <!-- Main brain shape -->
    <path d="M-15 -10 Q-20 -15 -15 -20 Q-10 -25 -5 -20 Q0 -15 5 -20 Q10 -25 15 -20 Q20 -15 15 -10 Q10 -5 5 -10 Q0 -15 -5 -10 Q-10 -5 -15 -10 Z" 
          fill="url(#brainGradient)" opacity="0.9"/>
    
    <!-- Neural connections -->
    <circle cx="-8" cy="-12" r="1" fill="white"/>
    <circle cx="8" cy="-12" r="1" fill="white"/>
    <circle cx="0" cy="-18" r="1" fill="white"/>
    <circle cx="-5" cy="-8" r="1" fill="white"/>
    <circle cx="5" cy="-8" r="1" fill="white"/>
    
    <!-- Connection lines -->
    <line x1="-8" y1="-12" x2="8" y2="-12" stroke="white" stroke-width="0.5" opacity="0.8"/>
    <line x1="0" y1="-18" x2="-5" y2="-8" stroke="white" stroke-width="0.5" opacity="0.8"/>
    <line x1="0" y1="-18" x2="5" y2="-8" stroke="white" stroke-width="0.5" opacity="0.8"/>
  </g>
  
  <!-- Productivity symbols -->
  <g transform="translate(64, 64)">
    <!-- Lightning bolt for speed -->
    <path d="M-30 20 L-25 15 L-28 10 L-22 5 L-32 10 L-30 15 L-35 20 Z" fill="#ffd700" opacity="0.9"/>
    
    <!-- Gear for automation -->
    <circle cx="30" cy="20" r="6" fill="none" stroke="#ff6b6b" stroke-width="1.5" opacity="0.9"/>
    <circle cx="30" cy="20" r="4" fill="none" stroke="#ff6b6b" stroke-width="1" opacity="0.9"/>
    <rect x="29" y="14" width="2" height="2" fill="#ff6b6b" opacity="0.9"/>
    <rect x="29" y="24" width="2" height="2" fill="#ff6b6b" opacity="0.9"/>
    <rect x="21" y="19" width="2" height="2" fill="#ff6b6b" opacity="0.9"/>
    <rect x="37" y="19" width="2" height="2" fill="#ff6b6b" opacity="0.9"/>
    
    <!-- Checkmark for completion -->
    <path d="M-30 -20 L-35 -15 L-32 -12 L-30 -15 L-28 -12 L-25 -15 Z" fill="#4ecdc4" opacity="0.9"/>
  </g>
</svg> 