<svg width="512" height="512" viewBox="0 0 512 512" fill="none" xmlns="http://www.w3.org/2000/svg">
  <defs>
    <!-- Gradient definitions -->
    <linearGradient id="bgGradient" x1="0%" y1="0%" x2="100%" y2="100%">
      <stop offset="0%" style="stop-color:#667eea;stop-opacity:1" />
      <stop offset="50%" style="stop-color:#764ba2;stop-opacity:1" />
      <stop offset="100%" style="stop-color:#f093fb;stop-opacity:1" />
    </linearGradient>
    
    <linearGradient id="brainGradient" x1="0%" y1="0%" x2="100%" y2="100%">
      <stop offset="0%" style="stop-color:#ff6b6b;stop-opacity:1" />
      <stop offset="50%" style="stop-color:#4ecdc4;stop-opacity:1" />
      <stop offset="100%" style="stop-color:#45b7d1;stop-opacity:1" />
    </linearGradient>
    
    <linearGradient id="glowGradient" x1="0%" y1="0%" x2="100%" y2="100%">
      <stop offset="0%" style="stop-color:#ff6b6b;stop-opacity:0.3" />
      <stop offset="50%" style="stop-color:#4ecdc4;stop-opacity:0.3" />
      <stop offset="100%" style="stop-color:#45b7d1;stop-opacity:0.3" />
    </linearGradient>
    
    <!-- Glow filter -->
    <filter id="glow">
      <feGaussianBlur stdDeviation="8" result="coloredBlur"/>
      <feMerge> 
        <feMergeNode in="coloredBlur"/>
        <feMergeNode in="SourceGraphic"/>
      </feMerge>
    </filter>
  </defs>
  
  <!-- Background circle with gradient -->
  <circle cx="256" cy="256" r="240" fill="url(#bgGradient)" stroke="url(#glowGradient)" stroke-width="4" filter="url(#glow)"/>
  
  <!-- Brain/AI representation -->
  <g transform="translate(256, 256)">
    <!-- Main brain shape -->
    <path d="M-60 -40 Q-80 -60 -60 -80 Q-40 -100 -20 -80 Q0 -60 20 -80 Q40 -100 60 -80 Q80 -60 60 -40 Q40 -20 20 -40 Q0 -60 -20 -40 Q-40 -20 -60 -40 Z" 
          fill="url(#brainGradient)" opacity="0.9"/>
    
    <!-- Brain folds -->
    <path d="M-40 -60 Q-50 -70 -40 -80 Q-30 -90 -20 -80 Q-10 -70 -20 -60 Q-30 -50 -40 -60 Z" fill="white" opacity="0.3"/>
    <path d="M20 -60 Q10 -70 20 -80 Q30 -90 40 -80 Q50 -70 40 -60 Q30 -50 20 -60 Z" fill="white" opacity="0.3"/>
    <path d="M-10 -70 Q-20 -80 -10 -90 Q0 -100 10 -90 Q20 -80 10 -70 Q0 -60 -10 -70 Z" fill="white" opacity="0.3"/>
    
    <!-- Neural connections -->
    <circle cx="-30" cy="-50" r="3" fill="#ff6b6b"/>
    <circle cx="30" cy="-50" r="3" fill="#4ecdc4"/>
    <circle cx="0" cy="-70" r="3" fill="#45b7d1"/>
    <circle cx="-20" cy="-30" r="3" fill="#ff6b6b"/>
    <circle cx="20" cy="-30" r="3" fill="#4ecdc4"/>
    
    <!-- Connection lines -->
    <line x1="-30" y1="-50" x2="30" y2="-50" stroke="white" stroke-width="1" opacity="0.6"/>
    <line x1="0" y1="-70" x2="-20" y2="-30" stroke="white" stroke-width="1" opacity="0.6"/>
    <line x1="0" y1="-70" x2="20" y2="-30" stroke="white" stroke-width="1" opacity="0.6"/>
  </g>
  
  <!-- Productivity symbols -->
  <g transform="translate(256, 256)">
    <!-- Lightning bolt for speed -->
    <path d="M-120 80 L-100 60 L-110 40 L-90 20 L-130 40 L-120 60 L-140 80 Z" fill="#ffd700" opacity="0.8"/>
    
    <!-- Gear for automation -->
    <circle cx="120" cy="80" r="25" fill="none" stroke="#ff6b6b" stroke-width="3" opacity="0.8"/>
    <circle cx="120" cy="80" r="15" fill="none" stroke="#ff6b6b" stroke-width="2" opacity="0.8"/>
    <rect x="115" y="55" width="10" height="8" fill="#ff6b6b" opacity="0.8"/>
    <rect x="115" y="97" width="10" height="8" fill="#ff6b6b" opacity="0.8"/>
    <rect x="85" y="75" width="8" height="10" fill="#ff6b6b" opacity="0.8"/>
    <rect x="147" y="75" width="8" height="10" fill="#ff6b6b" opacity="0.8"/>
    
    <!-- Checkmark for completion -->
    <path d="M-120 -80 L-140 -60 L-130 -50 L-120 -60 L-110 -50 L-100 -60 Z" fill="#4ecdc4" opacity="0.8"/>
  </g>
  
  <!-- Floating particles -->
  <circle cx="100" cy="100" r="2" fill="white" opacity="0.7">
    <animate attributeName="opacity" values="0.7;0.3;0.7" dur="2s" repeatCount="indefinite"/>
  </circle>
  <circle cx="412" cy="150" r="1.5" fill="white" opacity="0.6">
    <animate attributeName="opacity" values="0.6;0.2;0.6" dur="1.5s" repeatCount="indefinite"/>
  </circle>
  <circle cx="350" cy="400" r="2.5" fill="white" opacity="0.8">
    <animate attributeName="opacity" values="0.8;0.4;0.8" dur="2.5s" repeatCount="indefinite"/>
  </circle>
  <circle cx="150" cy="350" r="1" fill="white" opacity="0.5">
    <animate attributeName="opacity" values="0.5;0.1;0.5" dur="1.8s" repeatCount="indefinite"/>
  </circle>
  
  <!-- Outer glow ring -->
  <circle cx="256" cy="256" r="250" fill="none" stroke="url(#glowGradient)" stroke-width="2" opacity="0.5"/>
</svg> 